<mxfile host="app.diagrams.net" modified="2022-08-30T01:58:41.940Z" agent="5.0 (X11; Linux x86_64) AppleWebKit/537.36 (KHTML, like Gecko) Chrome/104.0.0.0 Safari/537.36" etag="Wbrx2ROQSCQcboHLRDod" version="20.2.7" type="github">
  <diagram id="w0enNLIORyrqbrCaIhO9" name="Page-1">
    <mxGraphModel dx="1350" dy="805" grid="1" gridSize="10" guides="1" tooltips="1" connect="1" arrows="1" fold="1" page="1" pageScale="1" pageWidth="850" pageHeight="1100" math="0" shadow="0">
      <root>
        <mxCell id="0" />
        <mxCell id="1" parent="0" />
        <mxCell id="h1ZF4eOuUFxfgZz6kgff-1" value="" style="ellipse;whiteSpace=wrap;html=1;aspect=fixed;" parent="1" vertex="1">
          <mxGeometry x="460" y="380" width="80" height="80" as="geometry" />
        </mxCell>
        <mxCell id="KmCh1t6VSUUhyZ9mb0Zl-3" style="edgeStyle=orthogonalEdgeStyle;rounded=0;orthogonalLoop=1;jettySize=auto;html=1;exitX=0.25;exitY=0;exitDx=0;exitDy=0;" edge="1" parent="1" source="KmCh1t6VSUUhyZ9mb0Zl-1" target="KmCh1t6VSUUhyZ9mb0Zl-2">
          <mxGeometry relative="1" as="geometry" />
        </mxCell>
        <mxCell id="KmCh1t6VSUUhyZ9mb0Zl-1" value="" style="whiteSpace=wrap;html=1;aspect=fixed;" vertex="1" parent="1">
          <mxGeometry x="380" y="210" width="80" height="80" as="geometry" />
        </mxCell>
        <mxCell id="KmCh1t6VSUUhyZ9mb0Zl-2" value="" style="swimlane;startSize=0;" vertex="1" parent="1">
          <mxGeometry x="320" y="150" width="200" height="200" as="geometry" />
        </mxCell>
      </root>
    </mxGraphModel>
  </diagram>
</mxfile>
